<svg width="20" height="22" viewBox="0 0 20 22" fill="none" xmlns="http://www.w3.org/2000/svg">
<path fill-rule="evenodd" clip-rule="evenodd" d="M0.298462 6.74994C0.665967 3.92867 3.07854 1.74994 5.99999 1.74994H14C16.9214 1.74994 19.334 3.92867 19.7015 6.74994H0.298462ZM14.5 0.249939C14.0858 0.249939 13.75 0.585725 13.75 0.999939V3.99994C13.75 4.41415 14.0858 4.74994 14.5 4.74994C14.9142 4.74994 15.25 4.41415 15.25 3.99994V0.999939C15.25 0.585725 14.9142 0.249939 14.5 0.249939ZM5.49999 0.249939C5.08578 0.249939 4.74999 0.585725 4.74999 0.999939V3.99994C4.74999 4.41415 5.08578 4.74994 5.49999 4.74994C5.91421 4.74994 6.24999 4.41415 6.24999 3.99994V0.999939C6.24999 0.585725 5.91421 0.249939 5.49999 0.249939Z" fill="black"/>
<path opacity="0.3" fill-rule="evenodd" clip-rule="evenodd" d="M0.25 8.24994V15.4999C0.25 18.6756 2.82436 21.2499 6 21.2499H14C17.1756 21.2499 19.75 18.6756 19.75 15.4999V8.24994H0.25ZM4.5 12.2499C4.08579 12.2499 3.75 11.9142 3.75 11.4999C3.75 11.0857 4.08579 10.7499 4.5 10.7499H5.5C5.91421 10.7499 6.25 11.0857 6.25 11.4999C6.25 11.9142 5.91421 12.2499 5.5 12.2499H4.5ZM8.75 11.4999C8.75 11.9142 9.08579 12.2499 9.5 12.2499H10.5C10.9142 12.2499 11.25 11.9142 11.25 11.4999C11.25 11.0857 10.9142 10.7499 10.5 10.7499H9.5C9.08579 10.7499 8.75 11.0857 8.75 11.4999ZM13.75 11.4999C13.75 11.9142 14.0858 12.2499 14.5 12.2499H15.5C15.9142 12.2499 16.25 11.9142 16.25 11.4999C16.25 11.0857 15.9142 10.7499 15.5 10.7499H14.5C14.0858 10.7499 13.75 11.0857 13.75 11.4999ZM3.75 15.4999C3.75 15.9142 4.08579 16.2499 4.5 16.2499H5.5C5.91421 16.2499 6.25 15.9142 6.25 15.4999C6.25 15.0857 5.91421 14.7499 5.5 14.7499H4.5C4.08579 14.7499 3.75 15.0857 3.75 15.4999ZM8.75 15.4999C8.75 15.9142 9.08579 16.2499 9.5 16.2499H10.5C10.9142 16.2499 11.25 15.9142 11.25 15.4999C11.25 15.0857 10.9142 14.7499 10.5 14.7499H9.5C9.08579 14.7499 8.75 15.0857 8.75 15.4999ZM13.75 15.4999C13.75 15.9142 14.0858 16.2499 14.5 16.2499H15.5C15.9142 16.2499 16.25 15.9142 16.25 15.4999C16.25 15.0857 15.9142 14.7499 15.5 14.7499H14.5C14.0858 14.7499 13.75 15.0857 13.75 15.4999Z" fill="black"/>
</svg>
